<svg version="1.1" id="Layer_1" xmlns="http://www.w3.org/2000/svg" xmlns:xlink="http://www.w3.org/1999/xlink" x="0px" y="0px"
	 width="100%" viewBox="0 0 2000 1500" enable-background="new 0 0 2000 1500" xml:space="preserve">
<path fill="#046380" opacity="1.000000" stroke="none" 
	d="
M1219.000000,1501.000000 
	C812.666809,1501.000000 406.833588,1501.000000 1.000272,1501.000000 
	C1.000181,1001.000244 1.000181,501.000549 1.000091,1.000608 
	C667.666199,1.000405 1334.332397,1.000405 2000.998901,1.000203 
	C2000.999268,500.999390 2000.999268,1000.998779 2000.999634,1500.999023 
	C1740.500000,1501.000000 1480.000000,1501.000000 1219.000000,1501.000000 
M1443.518799,661.541687 
	C1440.510620,664.731262 1437.559326,667.977295 1434.473633,671.090210 
	C1432.469482,673.112122 1430.269653,674.940063 1428.157471,676.854919 
	C1427.617676,676.488892 1427.077881,676.122803 1426.538086,675.756714 
	C1426.538086,666.772156 1427.242188,657.721497 1426.407349,648.815247 
	C1423.812500,621.136108 1420.639282,593.511047 1417.676758,565.866516 
	C1417.074829,560.250244 1416.011353,555.010254 1412.800171,549.928711 
	C1385.149658,506.173492 1357.854370,462.194031 1330.289429,418.384430 
	C1326.676392,412.642090 1322.492676,407.164917 1317.967896,402.106323 
	C1298.400513,380.230438 1275.004883,363.311951 1248.764648,350.393066 
	C1226.312134,339.338959 1203.127319,329.510681 1178.100464,326.926361 
	C1159.477661,325.003296 1140.528809,325.863831 1121.741699,326.265320 
	C1118.496948,326.334625 1115.192627,330.127106 1112.202026,332.552612 
	C1110.918823,333.593292 1110.367310,335.536011 1109.440308,337.143311 
	C1101.009644,332.550323 1092.281128,334.570465 1083.696167,334.906250 
	C1076.100708,335.203339 1070.257935,338.476715 1066.860107,345.437103 
	C1063.426514,352.470551 1064.580444,359.296448 1069.312378,365.093048 
	C1072.741455,369.293549 1076.888672,373.109375 1081.311523,376.260529 
	C1096.776489,387.279144 1114.600952,390.821411 1133.159790,391.869537 
	C1135.691772,392.012543 1138.454712,392.690338 1140.619385,393.958984 
	C1154.254028,401.949524 1168.194336,409.528595 1181.207397,418.448883 
	C1219.103760,444.426147 1256.777466,470.738159 1294.140991,497.474548 
	C1302.428467,503.404846 1309.726562,503.728424 1318.130981,499.310547 
	C1321.751953,497.407074 1325.451416,495.652771 1329.522583,493.628174 
	C1329.522583,498.816681 1329.297607,503.282257 1329.563843,507.718353 
	C1330.437866,522.280151 1336.408203,535.378113 1341.613525,548.688599 
	C1344.759888,556.734436 1350.061646,563.132935 1357.344727,567.547058 
	C1374.398315,577.882812 1379.893677,593.553955 1375.338135,611.714661 
	C1372.725952,622.127258 1375.076172,629.873352 1379.905518,638.218811 
	C1388.208740,652.567383 1397.153931,666.284729 1411.010132,676.104370 
	C1412.602905,677.233215 1413.355591,679.914673 1413.910645,682.030273 
	C1414.403320,683.908203 1413.560791,686.202209 1414.240601,687.949585 
	C1415.206787,690.433838 1416.608398,693.843384 1418.606201,694.508667 
	C1420.422974,695.113708 1423.311768,692.634338 1425.668823,691.401611 
	C1426.398071,691.020203 1426.933716,690.268494 1427.931885,689.337708 
	C1426.057617,711.401672 1421.125610,732.802002 1426.173828,754.271423 
	C1428.794678,735.853333 1430.861816,717.309814 1434.235718,699.007141 
	C1436.542480,686.492371 1440.670776,674.313354 1444.375122,661.851196 
	C1444.249023,661.711731 1444.122925,661.572266 1443.996948,661.432861 
	C1444.039307,661.641052 1444.081665,661.849304 1443.518799,661.541687 
M1092.935669,1077.364502 
	C1092.691772,1077.347900 1092.447998,1077.331299 1092.204102,1077.314697 
	C1092.293213,1077.710449 1092.382202,1078.106201 1092.674194,1079.278320 
	C1093.344604,1082.942871 1094.015015,1086.607300 1094.685425,1090.271851 
	C1094.148438,1090.384888 1093.611572,1090.497925 1093.074585,1090.610962 
	C1091.846680,1089.632812 1090.618774,1088.654663 1088.701294,1087.127319 
	C1089.836548,1095.330688 1087.024414,1101.125122 1080.328125,1104.908569 
	C1079.772095,1105.222656 1079.342773,1105.809448 1078.936890,1106.333252 
	C1075.299072,1111.029785 1070.399780,1112.337891 1064.614868,1113.082764 
	C1049.126465,1115.077271 1033.752197,1117.947021 1018.306641,1120.298828 
	C1015.450012,1120.733643 1012.329651,1120.959229 1009.572144,1120.289062 
	C979.605408,1113.007324 949.309570,1107.860107 918.615112,1104.729248 
	C903.101746,1103.146851 887.511230,1101.156616 872.343445,1097.665771 
	C856.031006,1093.911621 841.411804,1085.627319 827.067688,1076.498901 
	C836.469177,1071.341919 839.189575,1066.762573 836.691223,1060.531250 
	C831.994019,1067.589722 824.228882,1067.558960 817.189575,1068.871094 
	C815.214294,1069.239258 812.310059,1068.317505 810.807617,1066.930420 
	C800.893127,1057.776978 791.235229,1048.345337 781.512024,1038.985352 
	C749.344421,1008.019165 717.002686,977.230835 685.105896,945.988159 
	C671.165161,932.333374 658.423767,917.567322 651.232117,898.894531 
	C647.289368,888.657288 643.076721,878.522217 638.873596,868.387634 
	C636.555237,862.797729 634.004761,857.304138 631.435608,851.487915 
	C628.133057,854.165527 625.795715,857.920715 621.617371,854.327820 
	C617.286255,850.603577 615.040955,842.011475 617.464539,838.007751 
	C620.358643,833.226746 624.096130,834.947754 627.878357,837.083313 
	C627.878357,835.593262 628.018799,834.422180 627.857178,833.294495 
	C625.708923,818.299866 624.088196,803.199585 621.175232,788.353333 
	C618.361084,774.010620 619.021606,760.712036 627.163452,748.126404 
	C629.090820,745.147156 630.462708,741.428528 630.873779,737.907959 
	C634.407776,707.639648 638.144897,677.382324 640.888916,647.037354 
	C645.123474,600.208740 661.009521,558.102966 689.624451,520.767578 
	C709.291382,495.107056 732.675171,473.038483 756.523376,451.444977 
	C767.117065,441.852844 777.443115,431.572754 789.385315,423.944855 
	C813.481201,408.553986 838.423889,394.452911 863.335693,380.383575 
	C904.588928,357.085144 948.683716,344.336914 996.462708,346.047272 
	C1002.612305,346.267426 1008.804871,346.404053 1014.929565,345.942963 
	C1024.284058,345.238708 1029.798828,340.342499 1030.702026,331.515564 
	C1031.355469,325.130737 1030.829468,318.625214 1030.829468,311.725494 
	C1023.396179,314.720734 1017.928040,311.461365 1012.738281,307.141357 
	C1010.179016,305.011078 1007.665161,302.800812 1004.939026,300.901947 
	C999.563965,297.157959 994.074097,295.153534 987.459961,298.591370 
	C982.926941,300.947571 977.827576,302.205597 973.000305,304.005493 
	C950.856262,312.261963 928.737061,320.572754 909.288574,334.471619 
	C908.289429,335.185638 907.194336,335.765503 905.438599,336.839111 
	C905.924622,331.826965 906.599304,327.703186 906.602722,323.578796 
	C906.604309,321.664307 905.798706,318.802521 904.451782,318.093414 
	C903.036133,317.348114 900.168762,318.121887 898.588257,319.193878 
	C895.583374,321.232025 893.046936,323.959473 890.309692,326.393585 
	C884.589233,331.480682 878.974854,336.695038 873.102905,341.600922 
	C869.215576,344.848724 864.718506,345.729431 859.527100,344.713898 
	C855.693481,343.963959 851.482788,343.866394 847.651611,344.593231 
	C827.623169,348.393036 814.594666,360.729736 807.051025,379.219604 
	C805.965515,381.880249 804.788513,383.383392 801.833618,383.250397 
	C795.033325,382.944214 788.166077,383.210083 781.441528,382.345123 
	C770.589844,380.949341 761.182312,382.659393 752.951660,390.650208 
	C729.885803,413.044128 706.604065,435.218719 683.202271,457.261932 
	C676.664551,463.420044 672.292847,470.579803 669.977539,479.131195 
	C667.310120,488.982941 662.524841,497.627106 655.187012,504.757843 
	C644.795471,514.856140 634.766113,525.383911 623.810791,534.834167 
	C595.481018,559.271729 577.609741,589.616394 570.948547,626.359924 
	C565.962891,653.861084 561.715515,681.495605 556.892761,709.027588 
	C556.237244,712.769348 556.897949,715.652588 558.626465,718.871033 
	C570.766479,741.475464 581.720154,764.616699 588.240662,789.557617 
	C590.803711,799.361267 592.838196,809.317566 594.732666,819.276794 
	C596.180969,826.890503 592.802124,829.916565 585.225830,828.435364 
	C584.636414,828.320129 584.020935,828.338623 583.366760,828.291260 
	C582.332642,844.968445 582.923035,861.076599 590.561462,876.288940 
	C594.657532,884.446411 597.834106,893.061829 601.533936,901.422546 
	C617.811768,938.206787 634.919678,974.647644 647.627502,1012.905273 
	C649.150635,1017.490723 650.015747,1021.406921 656.118347,1023.364319 
	C664.291748,1025.985962 666.634399,1034.181274 667.971741,1042.218384 
	C670.171692,1055.439331 674.094543,1068.124512 680.929138,1079.729248 
	C693.559204,1101.174438 711.386719,1113.707275 737.311584,1112.155640 
	C740.964661,1111.937012 744.646729,1111.994385 748.306763,1112.139526 
	C758.401794,1112.540039 767.486206,1115.499634 775.361633,1122.187500 
	C789.606079,1134.284058 806.391724,1139.066650 824.872070,1138.640625 
	C826.471802,1138.603882 828.310791,1138.676270 829.656189,1139.404541 
	C852.609375,1151.829712 875.610107,1164.175537 898.326294,1177.023560 
	C903.508728,1179.954590 907.681580,1181.814453 913.138916,1175.411011 
	C913.138916,1181.240601 913.138916,1185.540405 913.138916,1189.558105 
	C932.614075,1187.829712 951.320007,1185.767212 970.081665,1184.601318 
	C996.469666,1182.961792 1022.679932,1184.244385 1048.307617,1191.694824 
	C1050.366943,1192.293335 1052.786865,1191.671509 1055.038086,1191.586792 
	C1061.950073,1191.326660 1069.296265,1189.438599 1075.672119,1191.157104 
	C1085.473755,1193.798828 1094.541016,1199.082764 1104.060425,1202.894531 
	C1107.815918,1204.398193 1111.902588,1205.352173 1115.924683,1205.828247 
	C1119.386230,1206.238037 1121.206909,1204.196899 1120.267090,1200.479736 
	C1119.946167,1199.210083 1119.566406,1197.955566 1119.178467,1196.569214 
	C1127.453979,1191.345581 1137.039429,1190.478394 1146.014160,1187.664185 
	C1156.462769,1184.387817 1163.559692,1186.712524 1169.041138,1196.086914 
	C1171.195923,1199.772217 1174.663696,1202.599365 1179.583496,1202.710938 
	C1179.583496,1199.679565 1179.572144,1196.857666 1179.585449,1194.035767 
	C1179.641479,1182.123169 1182.946411,1178.850342 1194.814209,1179.112549 
	C1198.725098,1179.198853 1202.630981,1179.510498 1206.912842,1179.738892 
	C1206.693481,1176.291260 1206.069336,1173.431152 1206.444702,1170.708862 
	C1206.975464,1166.858643 1207.087280,1162.072388 1209.397217,1159.497070 
	C1219.508057,1148.225098 1230.222900,1137.480591 1240.998657,1126.828003 
	C1244.199707,1123.663452 1248.314575,1121.423218 1251.957642,1118.797607 
	C1256.962158,1124.203735 1261.363770,1128.958496 1266.683105,1134.704590 
	C1266.859619,1125.655151 1264.277588,1119.375488 1259.536499,1113.899170 
	C1257.468018,1111.509888 1255.043579,1109.370117 1253.347168,1106.750366 
	C1252.771851,1105.861816 1253.621216,1102.720825 1254.352539,1102.516479 
	C1264.658691,1099.636230 1274.783203,1092.051392 1286.088989,1101.527222 
	C1282.642822,1091.930298 1285.529053,1087.751831 1295.256104,1086.979004 
	C1297.079590,1086.834106 1298.919556,1086.822754 1300.750244,1086.852661 
	C1313.715332,1087.065063 1318.613037,1083.068237 1320.173950,1070.119141 
	C1320.702393,1065.734375 1322.358276,1062.363159 1325.225098,1059.161499 
	C1362.024658,1018.063660 1388.234985,970.702881 1407.690063,919.365967 
	C1408.244751,917.902344 1408.697388,916.399963 1409.688354,913.459412 
	C1406.573120,915.796814 1404.695068,917.134155 1402.894287,918.568604 
	C1391.962036,927.277222 1383.096802,937.774231 1375.733765,949.630859 
	C1371.277222,956.807251 1368.175415,957.647583 1360.672729,954.094788 
	C1359.013306,959.232300 1357.365967,964.332764 1355.718628,969.433167 
	C1355.521851,969.376343 1355.325073,969.319519 1355.128296,969.262695 
	C1355.128296,965.597412 1355.128296,961.932190 1355.128296,957.749573 
	C1352.711792,959.593872 1350.751587,961.092529 1348.788818,962.587708 
	C1326.530640,979.541260 1304.644409,997.013245 1281.922241,1013.320190 
	C1251.362305,1035.252075 1220.265869,1056.444214 1189.175415,1077.624390 
	C1176.870728,1086.006958 1170.331177,1082.884888 1165.752441,1073.340820 
	C1165.670288,1073.169556 1165.208374,1073.180664 1164.749268,1073.061523 
	C1162.435547,1075.053711 1160.257568,1077.465088 1157.594604,1079.074219 
	C1154.810181,1080.756714 1151.559326,1081.667480 1148.512207,1082.915527 
	C1147.528809,1079.836426 1146.545410,1076.757202 1145.310059,1072.889160 
	C1142.180054,1072.889160 1137.166382,1071.629028 1133.403564,1073.258057 
	C1129.926514,1074.763428 1127.789917,1079.364868 1124.900635,1082.795410 
	C1123.342163,1080.532104 1121.725952,1078.185181 1119.330688,1074.706665 
	C1118.314087,1080.487549 1117.548828,1084.838501 1116.774414,1089.189697 
	C1113.143311,1083.029663 1112.444336,1083.286011 1105.776978,1092.950195 
	C1101.592896,1087.997681 1097.334839,1082.957764 1092.935669,1077.364502 
M868.799011,569.499878 
	C868.799011,701.268799 868.799011,833.037781 868.799011,965.390137 
	C852.946838,965.390137 837.714478,965.390137 822.530029,965.390137 
	C822.530029,977.558838 822.530029,989.140137 822.530029,1000.628967 
	C941.419128,1000.628967 1059.975830,1000.628967 1178.547852,1000.628967 
	C1178.547852,963.991638 1178.547852,927.728821 1178.547852,891.345703 
	C1166.585938,891.345703 1154.880859,891.345703 1142.765259,891.345703 
	C1142.765259,916.114563 1142.765259,940.536926 1142.765259,964.819702 
	C1063.619507,964.819702 984.889404,964.819702 906.191528,964.819702 
	C906.191528,822.041565 906.191528,679.622498 906.191528,536.721680 
	C925.870056,536.721680 945.280151,536.721680 964.877136,536.721680 
	C964.877136,524.650757 964.877136,513.062195 964.877136,501.325745 
	C917.293213,501.325745 869.919250,501.325745 822.519775,501.325745 
	C822.519775,513.230164 822.519775,524.803406 822.519775,536.975464 
	C838.049072,536.975464 853.265564,536.975464 868.799011,536.975464 
	C868.799011,547.884583 868.799011,558.192200 868.799011,569.499878 
z"/>
<path fill="#FEFEFE" opacity="1.000000" stroke="none" 
	d="
M1093.076904,1077.917847 
	C1097.334839,1082.957764 1101.592896,1087.997681 1105.776978,1092.950195 
	C1112.444336,1083.286011 1113.143311,1083.029663 1116.779053,1089.189575 
	C1117.548828,1084.838501 1118.314087,1080.487549 1119.330688,1074.706665 
	C1121.725952,1078.185181 1123.342163,1080.532104 1124.900635,1082.795410 
	C1127.789917,1079.364868 1129.926514,1074.763428 1133.403564,1073.258057 
	C1137.166382,1071.629028 1142.180054,1072.889160 1145.310059,1072.889160 
	C1146.545410,1076.757202 1147.528809,1079.836426 1148.512207,1082.915527 
	C1151.559326,1081.667480 1154.810181,1080.756714 1157.594604,1079.074219 
	C1160.257568,1077.465088 1162.435547,1075.053711 1164.749268,1073.061523 
	C1165.208374,1073.180664 1165.670288,1073.169556 1165.752441,1073.340820 
	C1170.331177,1082.884888 1176.870728,1086.006958 1189.175415,1077.624390 
	C1220.265869,1056.444214 1251.362305,1035.252075 1281.922241,1013.320190 
	C1304.644409,997.013245 1326.530640,979.541260 1348.788818,962.587708 
	C1350.751587,961.092529 1352.711792,959.593872 1355.128296,957.749573 
	C1355.128296,961.932190 1355.128296,965.597412 1355.128296,969.262695 
	C1355.325073,969.319519 1355.521851,969.376343 1355.718628,969.433167 
	C1357.365967,964.332764 1359.013306,959.232300 1360.672729,954.094788 
	C1368.175415,957.647583 1371.277222,956.807251 1375.733765,949.630859 
	C1383.096802,937.774231 1391.962036,927.277222 1402.894287,918.568604 
	C1404.695068,917.134155 1406.573120,915.796814 1409.688354,913.459412 
	C1408.697388,916.399963 1408.244751,917.902344 1407.690063,919.365967 
	C1388.234985,970.702881 1362.024658,1018.063660 1325.225098,1059.161499 
	C1322.358276,1062.363159 1320.702393,1065.734375 1320.173950,1070.119141 
	C1318.613037,1083.068237 1313.715332,1087.065063 1300.750244,1086.852661 
	C1298.919556,1086.822754 1297.079590,1086.834106 1295.256104,1086.979004 
	C1285.529053,1087.751831 1282.642822,1091.930298 1286.088989,1101.527222 
	C1274.783203,1092.051392 1264.658691,1099.636230 1254.352539,1102.516479 
	C1253.621216,1102.720825 1252.771851,1105.861816 1253.347168,1106.750366 
	C1255.043579,1109.370117 1257.468018,1111.509888 1259.536499,1113.899170 
	C1264.277588,1119.375488 1266.859619,1125.655151 1266.683105,1134.704590 
	C1261.363770,1128.958496 1256.962158,1124.203735 1251.957642,1118.797607 
	C1248.314575,1121.423218 1244.199707,1123.663452 1240.998657,1126.828003 
	C1230.222900,1137.480591 1219.508057,1148.225098 1209.397217,1159.497070 
	C1207.087280,1162.072388 1206.975464,1166.858643 1206.444702,1170.708862 
	C1206.069336,1173.431152 1206.693481,1176.291260 1206.912842,1179.738892 
	C1202.630981,1179.510498 1198.725098,1179.198853 1194.814209,1179.112549 
	C1182.946411,1178.850342 1179.641479,1182.123169 1179.585449,1194.035767 
	C1179.572144,1196.857666 1179.583496,1199.679565 1179.583496,1202.710938 
	C1174.663696,1202.599365 1171.195923,1199.772217 1169.041138,1196.086914 
	C1163.559692,1186.712524 1156.462769,1184.387817 1146.014160,1187.664185 
	C1137.039429,1190.478394 1127.453979,1191.345581 1119.178467,1196.569214 
	C1119.566406,1197.955566 1119.946167,1199.210083 1120.267090,1200.479736 
	C1121.206909,1204.196899 1119.386230,1206.238037 1115.924683,1205.828247 
	C1111.902588,1205.352173 1107.815918,1204.398193 1104.060425,1202.894531 
	C1094.541016,1199.082764 1085.473755,1193.798828 1075.672119,1191.157104 
	C1069.296265,1189.438599 1061.950073,1191.326660 1055.038086,1191.586792 
	C1052.786865,1191.671509 1050.366943,1192.293335 1048.307617,1191.694824 
	C1022.679932,1184.244385 996.469666,1182.961792 970.081665,1184.601318 
	C951.320007,1185.767212 932.614075,1187.829712 913.138916,1189.558105 
	C913.138916,1185.540405 913.138916,1181.240601 913.138916,1175.411011 
	C907.681580,1181.814453 903.508728,1179.954590 898.326294,1177.023560 
	C875.610107,1164.175537 852.609375,1151.829712 829.656189,1139.404541 
	C828.310791,1138.676270 826.471802,1138.603882 824.872070,1138.640625 
	C806.391724,1139.066650 789.606079,1134.284058 775.361633,1122.187500 
	C767.486206,1115.499634 758.401794,1112.540039 748.306763,1112.139526 
	C744.646729,1111.994385 740.964661,1111.937012 737.311584,1112.155640 
	C711.386719,1113.707275 693.559204,1101.174438 680.929138,1079.729248 
	C674.094543,1068.124512 670.171692,1055.439331 667.971741,1042.218384 
	C666.634399,1034.181274 664.291748,1025.985962 656.118347,1023.364319 
	C650.015747,1021.406921 649.150635,1017.490723 647.627502,1012.905273 
	C634.919678,974.647644 617.811768,938.206787 601.533936,901.422546 
	C597.834106,893.061829 594.657532,884.446411 590.561462,876.288940 
	C582.923035,861.076599 582.332642,844.968445 583.366760,828.291260 
	C584.020935,828.338623 584.636414,828.320129 585.225830,828.435364 
	C592.802124,829.916565 596.180969,826.890503 594.732666,819.276794 
	C592.838196,809.317566 590.803711,799.361267 588.240662,789.557617 
	C581.720154,764.616699 570.766479,741.475464 558.626465,718.871033 
	C556.897949,715.652588 556.237244,712.769348 556.892761,709.027588 
	C561.715515,681.495605 565.962891,653.861084 570.948547,626.359924 
	C577.609741,589.616394 595.481018,559.271729 623.810791,534.834167 
	C634.766113,525.383911 644.795471,514.856140 655.187012,504.757843 
	C662.524841,497.627106 667.310120,488.982941 669.977539,479.131195 
	C672.292847,470.579803 676.664551,463.420044 683.202271,457.261932 
	C706.604065,435.218719 729.885803,413.044128 752.951660,390.650208 
	C761.182312,382.659393 770.589844,380.949341 781.441528,382.345123 
	C788.166077,383.210083 795.033325,382.944214 801.833618,383.250397 
	C804.788513,383.383392 805.965515,381.880249 807.051025,379.219604 
	C814.594666,360.729736 827.623169,348.393036 847.651611,344.593231 
	C851.482788,343.866394 855.693481,343.963959 859.527100,344.713898 
	C864.718506,345.729431 869.215576,344.848724 873.102905,341.600922 
	C878.974854,336.695038 884.589233,331.480682 890.309692,326.393585 
	C893.046936,323.959473 895.583374,321.232025 898.588257,319.193878 
	C900.168762,318.121887 903.036133,317.348114 904.451782,318.093414 
	C905.798706,318.802521 906.604309,321.664307 906.602722,323.578796 
	C906.599304,327.703186 905.924622,331.826965 905.438599,336.839111 
	C907.194336,335.765503 908.289429,335.185638 909.288574,334.471619 
	C928.737061,320.572754 950.856262,312.261963 973.000305,304.005493 
	C977.827576,302.205597 982.926941,300.947571 987.459961,298.591370 
	C994.074097,295.153534 999.563965,297.157959 1004.939026,300.901947 
	C1007.665161,302.800812 1010.179016,305.011078 1012.738281,307.141357 
	C1017.928040,311.461365 1023.396179,314.720734 1030.829468,311.725494 
	C1030.829468,318.625214 1031.355469,325.130737 1030.702026,331.515564 
	C1029.798828,340.342499 1024.284058,345.238708 1014.929565,345.942963 
	C1008.804871,346.404053 1002.612305,346.267426 996.462708,346.047272 
	C948.683716,344.336914 904.588928,357.085144 863.335693,380.383575 
	C838.423889,394.452911 813.481201,408.553986 789.385315,423.944855 
	C777.443115,431.572754 767.117065,441.852844 756.523376,451.444977 
	C732.675171,473.038483 709.291382,495.107056 689.624451,520.767578 
	C661.009521,558.102966 645.123474,600.208740 640.888916,647.037354 
	C638.144897,677.382324 634.407776,707.639648 630.873779,737.907959 
	C630.462708,741.428528 629.090820,745.147156 627.163452,748.126404 
	C619.021606,760.712036 618.361084,774.010620 621.175232,788.353333 
	C624.088196,803.199585 625.708923,818.299866 627.857178,833.294495 
	C628.018799,834.422180 627.878357,835.593262 627.878357,837.083313 
	C624.096130,834.947754 620.358643,833.226746 617.464539,838.007751 
	C615.040955,842.011475 617.286255,850.603577 621.617371,854.327820 
	C625.795715,857.920715 628.133057,854.165527 631.435608,851.487915 
	C634.004761,857.304138 636.555237,862.797729 638.873596,868.387634 
	C643.076721,878.522217 647.289368,888.657288 651.232117,898.894531 
	C658.423767,917.567322 671.165161,932.333374 685.105896,945.988159 
	C717.002686,977.230835 749.344421,1008.019165 781.512024,1038.985352 
	C791.235229,1048.345337 800.893127,1057.776978 810.807617,1066.930420 
	C812.310059,1068.317505 815.214294,1069.239258 817.189575,1068.871094 
	C824.228882,1067.558960 831.994019,1067.589722 836.691223,1060.531250 
	C839.189575,1066.762573 836.469177,1071.341919 827.067688,1076.498901 
	C841.411804,1085.627319 856.031006,1093.911621 872.343445,1097.665771 
	C887.511230,1101.156616 903.101746,1103.146851 918.615112,1104.729248 
	C949.309570,1107.860107 979.605408,1113.007324 1009.572144,1120.289062 
	C1012.329651,1120.959229 1015.450012,1120.733643 1018.306641,1120.298828 
	C1033.752197,1117.947021 1049.126465,1115.077271 1064.614868,1113.082764 
	C1070.399780,1112.337891 1075.299072,1111.029785 1078.936890,1106.333252 
	C1079.342773,1105.809448 1079.772095,1105.222656 1080.328125,1104.908569 
	C1087.024414,1101.125122 1089.836548,1095.330688 1088.701294,1087.127319 
	C1090.618774,1088.654663 1091.846680,1089.632812 1093.074585,1090.610962 
	C1093.611572,1090.497925 1094.148438,1090.384888 1094.685425,1090.271851 
	C1094.015015,1086.607300 1093.344604,1082.942871 1092.727539,1078.747559 
	C1092.780884,1078.216919 1093.076904,1077.917847 1093.076904,1077.917847 
M637.470032,888.930054 
	C634.657288,883.472046 633.569763,876.671814 626.661011,873.394897 
	C629.224915,880.591003 632.584656,886.633728 633.347290,892.988220 
	C634.383179,901.619507 639.241394,905.641907 646.510376,908.705078 
	C643.508606,902.104309 640.665833,895.853088 637.470032,888.930054 
M623.053711,893.036682 
	C623.292175,893.008240 623.546326,893.018188 623.760803,892.930847 
	C623.837219,892.899841 623.875305,892.615479 623.833496,892.475952 
	C622.462646,887.898804 621.207458,883.280273 619.621338,878.778442 
	C619.144775,877.425964 617.922180,875.803650 616.699646,875.433594 
	C615.880371,875.185547 613.857666,876.716919 613.468262,877.833801 
	C613.039185,879.064270 613.425049,881.047913 614.221375,882.150696 
	C616.826233,885.757446 619.779175,889.112732 623.053711,893.036682 
z"/>
<path fill="#FDFEFE" opacity="1.000000" stroke="none" 
	d="
M868.799011,568.999878 
	C868.799011,558.192200 868.799011,547.884583 868.799011,536.975464 
	C853.265564,536.975464 838.049072,536.975464 822.519775,536.975464 
	C822.519775,524.803406 822.519775,513.230164 822.519775,501.325745 
	C869.919250,501.325745 917.293213,501.325745 964.877136,501.325745 
	C964.877136,513.062195 964.877136,524.650757 964.877136,536.721680 
	C945.280151,536.721680 925.870056,536.721680 906.191528,536.721680 
	C906.191528,679.622498 906.191528,822.041565 906.191528,964.819702 
	C984.889404,964.819702 1063.619507,964.819702 1142.765259,964.819702 
	C1142.765259,940.536926 1142.765259,916.114563 1142.765259,891.345703 
	C1154.880859,891.345703 1166.585938,891.345703 1178.547852,891.345703 
	C1178.547852,927.728821 1178.547852,963.991638 1178.547852,1000.628967 
	C1059.975830,1000.628967 941.419128,1000.628967 822.530029,1000.628967 
	C822.530029,989.140137 822.530029,977.558838 822.530029,965.390137 
	C837.714478,965.390137 852.946838,965.390137 868.799011,965.390137 
	C868.799011,833.037781 868.799011,701.268799 868.799011,568.999878 
z"/>
<path fill="#FEFEFE" opacity="1.000000" stroke="none" 
	d="
M1443.984863,661.984253 
	C1440.670776,674.313354 1436.542480,686.492371 1434.235718,699.007141 
	C1430.861816,717.309814 1428.794678,735.853333 1426.173828,754.271423 
	C1421.125610,732.802002 1426.057617,711.401672 1427.931885,689.337708 
	C1426.933716,690.268494 1426.398071,691.020203 1425.668823,691.401611 
	C1423.311768,692.634338 1420.422974,695.113708 1418.606201,694.508667 
	C1416.608398,693.843384 1415.206787,690.433838 1414.240601,687.949585 
	C1413.560791,686.202209 1414.403320,683.908203 1413.910645,682.030273 
	C1413.355591,679.914673 1412.602905,677.233215 1411.010132,676.104370 
	C1397.153931,666.284729 1388.208740,652.567383 1379.905518,638.218811 
	C1375.076172,629.873352 1372.725952,622.127258 1375.338135,611.714661 
	C1379.893677,593.553955 1374.398315,577.882812 1357.344727,567.547058 
	C1350.061646,563.132935 1344.759888,556.734436 1341.613525,548.688599 
	C1336.408203,535.378113 1330.437866,522.280151 1329.563843,507.718353 
	C1329.297607,503.282257 1329.522583,498.816681 1329.522583,493.628174 
	C1325.451416,495.652771 1321.751953,497.407074 1318.130981,499.310547 
	C1309.726562,503.728424 1302.428467,503.404846 1294.140991,497.474548 
	C1256.777466,470.738159 1219.103760,444.426147 1181.207397,418.448883 
	C1168.194336,409.528595 1154.254028,401.949524 1140.619385,393.958984 
	C1138.454712,392.690338 1135.691772,392.012543 1133.159790,391.869537 
	C1114.600952,390.821411 1096.776489,387.279144 1081.311523,376.260529 
	C1076.888672,373.109375 1072.741455,369.293549 1069.312378,365.093048 
	C1064.580444,359.296448 1063.426514,352.470551 1066.860107,345.437103 
	C1070.257935,338.476715 1076.100708,335.203339 1083.696167,334.906250 
	C1092.281128,334.570465 1101.009644,332.550323 1109.440308,337.143311 
	C1110.367310,335.536011 1110.918823,333.593292 1112.202026,332.552612 
	C1115.192627,330.127106 1118.496948,326.334625 1121.741699,326.265320 
	C1140.528809,325.863831 1159.477661,325.003296 1178.100464,326.926361 
	C1203.127319,329.510681 1226.312134,339.338959 1248.764648,350.393066 
	C1275.004883,363.311951 1298.400513,380.230438 1317.967896,402.106323 
	C1322.492676,407.164917 1326.676392,412.642090 1330.289429,418.384430 
	C1357.854370,462.194031 1385.149658,506.173492 1412.800171,549.928711 
	C1416.011353,555.010254 1417.074829,560.250244 1417.676758,565.866516 
	C1420.639282,593.511047 1423.812500,621.136108 1426.407349,648.815247 
	C1427.242188,657.721497 1426.538086,666.772156 1426.538086,675.756714 
	C1427.077881,676.122803 1427.617676,676.488892 1428.157471,676.854919 
	C1430.269653,674.940063 1432.469482,673.112122 1434.473633,671.090210 
	C1437.559326,667.977295 1440.510620,664.731262 1443.785278,661.783813 
	C1444.051758,662.025940 1443.984863,661.984253 1443.984863,661.984253 
z"/>
<path fill="#FEFEFE" opacity="1.000000" stroke="none" 
	d="
M1444.087891,662.041748 
	C1444.081665,661.849304 1444.039307,661.641052 1443.996826,661.432861 
	C1444.122925,661.572266 1444.249023,661.711731 1444.179932,661.917725 
	C1443.984863,661.984253 1444.051758,662.025940 1444.087891,662.041748 
z"/>
<path fill="#FEFEFE" opacity="1.000000" stroke="none" 
	d="
M1092.626099,1078.359375 
	C1092.382202,1078.106201 1092.293213,1077.710449 1092.204102,1077.314697 
	C1092.447998,1077.331299 1092.691772,1077.347900 1093.006348,1077.641113 
	C1093.076904,1077.917847 1092.780884,1078.216919 1092.626099,1078.359375 
z"/>
<path fill="#166E89" opacity="1.000000" stroke="none" 
	d="
M637.646545,889.265991 
	C640.665833,895.853088 643.508606,902.104309 646.510376,908.705078 
	C639.241394,905.641907 634.383179,901.619507 633.347290,892.988220 
	C632.584656,886.633728 629.224915,880.591003 626.661011,873.394897 
	C633.569763,876.671814 634.657288,883.472046 637.646545,889.265991 
z"/>
<path fill="#166E89" opacity="1.000000" stroke="none" 
	d="
M622.825989,892.800720 
	C619.779175,889.112732 616.826233,885.757446 614.221375,882.150696 
	C613.425049,881.047913 613.039185,879.064270 613.468262,877.833801 
	C613.857666,876.716919 615.880371,875.185547 616.699646,875.433594 
	C617.922180,875.803650 619.144775,877.425964 619.621338,878.778442 
	C621.207458,883.280273 622.462646,887.898804 623.833496,892.475952 
	C623.875305,892.615479 623.837219,892.899841 623.760803,892.930847 
	C623.546326,893.018188 623.292175,893.008240 622.825989,892.800720 
z"/>
</svg>